<?xml version="1.0" encoding="utf-8"?>
<!-- Generator: Adobe Illustrator 22.1.0, SVG Export Plug-In . SVG Version: 6.00 Build 0)  -->
<svg version="1.1" id="Layer_1" xmlns="http://www.w3.org/2000/svg" xmlns:xlink="http://www.w3.org/1999/xlink" x="0px" y="0px"
	 viewBox="0 0 238.4 35.3" style="enable-background:new 0 0 238.4 35.3;" xml:space="preserve">
<style type="text/css">
	.st0{fill:#FFFFFF;}
	.st1{opacity:0.98;fill:#FFFFFF;enable-background:new    ;}
	.st2{fill:url(#SVGID_1_);}
</style>
<path class="st0" d="M33.3,34H0V0.8h6.7v26.7h17.8c1,1.6,2.2,2.9,3.7,4c0.6,0.5,1.3,0.9,2,1.3c0,0,0,0,0,0c0,0,0.1,0,0.1,0.1
	C31.2,33.3,32.2,33.7,33.3,34z"/>
<path class="st0" d="M80.7,34.3H74V0.7h23.3c2.7,0,5.2,1,7.1,2.9c1.9,1.9,2.9,4.4,2.9,7.1c0,2.7-1,5.2-2.9,7.1
	c-1.9,1.9-4.4,2.9-7.1,2.9H82.7l6.2-6.7h8.3c0.9,0,1.8-0.3,2.4-1c0.6-0.6,1-1.5,1-2.4c0-0.9-0.3-1.8-1-2.4c-0.6-0.6-1.5-1-2.4-1
	H80.5v27.1H80.7z"/>
<path class="st0" d="M126.6,7.4V34h-6.7V7.4h-11.3c-0.4-1.3-1-2.5-1.8-3.6c-1-1.3-2.4-2.4-3.9-3.1H143v6.7H126.6z"/>
<path class="st0" d="M144.9,14v6.7h15V14H144.9z M145,7.4c6.7,0,13.4,0.1,20.2,0.1c1-2,2.5-3.6,4.3-4.9c1.1-0.8,2.4-1.4,3.7-1.8H145
	"/>
<path class="st0" d="M144.8,34H173c-1.3-0.4-2.6-1-3.7-1.8c-1.8-1.3-3.3-2.9-4.3-4.9c-6.7,0-13.4,0.1-20.2,0.1"/>
<path class="st0" d="M180.6,7.4h22.5V0.7h-22.5c-4.4-0.1-8.7,1.7-11.8,4.9c-3.2,3.1-4.9,7.4-4.9,11.8c-0.1,4.4,1.7,8.7,4.9,11.8
	c3.1,3.2,7.4,4.9,11.8,4.9h22.5v-6.7h-22.5c-2.7,0-5.2-1-7.1-2.9c-1.9-1.9-2.9-4.4-2.9-7.1c0-2.7,1-5.2,2.9-7.1
	C175.4,8.4,177.9,7.4,180.6,7.4z"/>
<path class="st0" d="M211.7,20.7V34H205V0.7h6.7V14h20V0.7h6.7V34h-6.7V20.7H211.7z"/>
<path class="st0" d="M33.3,34H0V0.8h6.7v26.7h17.8c1,1.6,2.2,2.9,3.7,4c0.6,0.5,1.3,0.9,2,1.3c0,0,0,0,0,0c0,0,0.1,0,0.1,0.1
	C31.2,33.3,32.2,33.7,33.3,34z"/>
<path class="st0" d="M80.7,34.3H74V0.7h23.3c2.7,0,5.2,1,7.1,2.9c1.9,1.9,2.9,4.4,2.9,7.1c0,2.7-1,5.2-2.9,7.1
	c-1.9,1.9-4.4,2.9-7.1,2.9H82.7l6.2-6.7h8.3c0.9,0,1.8-0.3,2.4-1c0.6-0.6,1-1.5,1-2.4c0-0.9-0.3-1.8-1-2.4c-0.6-0.6-1.5-1-2.4-1
	H80.5v27.1H80.7z"/>
<path class="st0" d="M126.6,7.4V34h-6.7V7.4h-11.3c-0.4-1.3-1-2.5-1.8-3.6c-1-1.3-2.4-2.4-3.9-3.1H143v6.7H126.6z"/>
<path class="st0" d="M144.9,14v6.7h15V14H144.9z M145,7.4c6.7,0,13.4,0.1,20.2,0.1c1-2,2.5-3.6,4.3-4.9c1.1-0.8,2.4-1.4,3.7-1.8H145
	"/>
<path class="st0" d="M144.8,34H173c-1.3-0.4-2.6-1-3.7-1.8c-1.8-1.3-3.3-2.9-4.3-4.9c-6.7,0-13.4,0.1-20.2,0.1"/>
<path class="st0" d="M180.6,7.4h22.5V0.7h-22.5c-4.4-0.1-8.7,1.7-11.8,4.9c-3.2,3.1-4.9,7.4-4.9,11.8c-0.1,4.4,1.7,8.7,4.9,11.8
	c3.1,3.2,7.4,4.9,11.8,4.9h22.5v-6.7h-22.5c-2.7,0-5.2-1-7.1-2.9c-1.9-1.9-2.9-4.4-2.9-7.1c0-2.7,1-5.2,2.9-7.1
	C175.4,8.4,177.9,7.4,180.6,7.4z"/>
<path class="st0" d="M211.7,20.7V34H205V0.7h6.7V14h20V0.7h6.7V34h-6.7V20.7H211.7z"/>
<path class="st1" d="M46,2.6c-4.7,3-7.8,8.2-8.1,14.1H23c0.6-8.6,7.8-15.4,16.5-15.4C41.9,1.3,44,1.8,46,2.6z"/>
<path class="st1" d="M72.9,18.2c-0.3,9-7.7,16.1-16.7,16.1c-2.7,0-5.2-0.6-7.5-1.8c4.8-3,8-8.3,8.2-14.4H72.9z"/>
<linearGradient id="SVGID_1_" gradientUnits="userSpaceOnUse" x1="47.45" y1="846.64" x2="47.45" y2="809.93" gradientTransform="matrix(1 0 0 1 0 -810.39)">
	<stop  offset="0" style="stop-color:#000000"/>
	<stop  offset="5.000000e-02" style="stop-color:#000405"/>
	<stop  offset="0.12" style="stop-color:#000F15"/>
	<stop  offset="0.2" style="stop-color:#00222F"/>
	<stop  offset="0.28" style="stop-color:#003C53"/>
	<stop  offset="0.36" style="stop-color:#005E81"/>
	<stop  offset="0.45" style="stop-color:#0086B9"/>
	<stop  offset="0.52" style="stop-color:#00ADEE"/>
	<stop  offset="0.57" style="stop-color:#00A3E1"/>
	<stop  offset="0.65" style="stop-color:#0089BD"/>
	<stop  offset="0.77" style="stop-color:#005F83"/>
	<stop  offset="0.91" style="stop-color:#002635"/>
	<stop  offset="1" style="stop-color:#000000"/>
</linearGradient>
<path class="st2" d="M72.5,17.4H56.2v0.2c0,9.3-7.6,16.9-16.9,16.9S22.4,27,22.4,17.6v-0.2h16.3c0-9.3,7.6-16.9,16.9-16.9
	S72.5,8.1,72.5,17.4z"/>
</svg>
